<svg xmlns="http://www.w3.org/2000/svg" xmlns:xlink="http://www.w3.org/1999/xlink" width="2000" zoomAndPan="magnify" viewBox="0 0 1500 1499.999933" height="2000" preserveAspectRatio="xMidYMid meet" version="1.0"><defs><clipPath id="dbe8c934ae"><path d="M 73.304688 888 L 1427 888 L 1427 1416.742188 L 73.304688 1416.742188 Z M 73.304688 888 " clip-rule="nonzero"/></clipPath><clipPath id="47a8c85425"><path d="M 411 62.992188 L 1089 62.992188 L 1089 1146 L 411 1146 Z M 411 62.992188 " clip-rule="nonzero"/></clipPath><clipPath id="6ec6cd1c76"><path d="M 150 267 L 1320 267 L 1320 1277 L 150 1277 Z M 150 267 " clip-rule="nonzero"/></clipPath><clipPath id="d18c46dfe4"><path d="M -28.972656 763.78125 L 1222.320312 267.132812 L 1504.8125 978.871094 L 253.523438 1475.519531 Z M -28.972656 763.78125 " clip-rule="nonzero"/></clipPath><clipPath id="1525182d46"><path d="M -28.972656 763.78125 L 1222.320312 267.132812 L 1504.8125 978.871094 L 253.523438 1475.519531 Z M -28.972656 763.78125 " clip-rule="nonzero"/></clipPath><clipPath id="d934e332e1"><path d="M 164 1022 L 277 1022 L 277 1209 L 164 1209 Z M 164 1022 " clip-rule="nonzero"/></clipPath><clipPath id="d92744f456"><path d="M -28.972656 763.78125 L 1222.320312 267.132812 L 1504.8125 978.871094 L 253.523438 1475.519531 Z M -28.972656 763.78125 " clip-rule="nonzero"/></clipPath><clipPath id="d74aaa38ba"><path d="M -28.972656 763.78125 L 1222.320312 267.132812 L 1504.8125 978.871094 L 253.523438 1475.519531 Z M -28.972656 763.78125 " clip-rule="nonzero"/></clipPath><clipPath id="116172aa95"><path d="M 318 812 L 1192 812 L 1192 1344 L 318 1344 Z M 318 812 " clip-rule="nonzero"/></clipPath><clipPath id="bd12435135"><path d="M -28.972656 763.78125 L 1222.320312 267.132812 L 1504.8125 978.871094 L 253.523438 1475.519531 Z M -28.972656 763.78125 " clip-rule="nonzero"/></clipPath><clipPath id="9b85bda882"><path d="M -28.972656 763.78125 L 1222.320312 267.132812 L 1504.8125 978.871094 L 253.523438 1475.519531 Z M -28.972656 763.78125 " clip-rule="nonzero"/></clipPath></defs><g clip-path="url(#dbe8c934ae)"><path fill="#6721ff" d="M 957.675781 888.085938 C 946.714844 909.46875 936.226562 930.785156 926.007812 952.03125 C 1138.488281 974.972656 1291.355469 1037.703125 1291.355469 1111.867188 C 1291.355469 1205.320312 1048.960938 1281.039062 750 1281.039062 C 451.035156 1281.039062 208.644531 1205.320312 208.644531 1111.867188 C 208.644531 1037.703125 361.507812 974.972656 573.921875 952.101562 C 563.773438 930.851562 553.148438 909.535156 542.253906 888.289062 C 270.222656 923.273438 73.304688 1025.316406 73.304688 1145.703125 C 73.304688 1295.183594 376.261719 1416.378906 750 1416.378906 C 1123.667969 1416.378906 1426.691406 1295.183594 1426.691406 1145.703125 C 1426.691406 1025.316406 1229.773438 923.273438 957.675781 888.085938 Z M 957.675781 888.085938 " fill-opacity="1" fill-rule="nonzero"/></g><g clip-path="url(#47a8c85425)"><path fill="#6721ff" d="M 783.832031 1145.703125 C 822.675781 951.964844 979.667969 728.859375 1050.855469 549.601562 C 1074.746094 503.925781 1088.347656 452.089844 1088.347656 397.144531 C 1088.347656 212.472656 936.765625 62.992188 749.929688 62.992188 C 563.097656 62.992188 411.652344 212.472656 411.652344 397.144531 C 411.652344 452.089844 425.117188 503.925781 449.007812 549.601562 C 520.195312 728.859375 677.390625 951.964844 716.164062 1145.703125 C 724.691406 1145.703125 775.441406 1145.703125 783.832031 1145.703125 Z M 749.929688 232.167969 C 843.382812 232.167969 919.171875 308.023438 919.171875 401.339844 C 919.171875 494.789062 843.382812 570.511719 749.929688 570.511719 C 656.480469 570.511719 580.824219 494.789062 580.824219 401.339844 C 580.824219 308.023438 656.480469 232.167969 749.929688 232.167969 Z M 749.929688 232.167969 " fill-opacity="1" fill-rule="nonzero"/></g><g clip-path="url(#6ec6cd1c76)"><g clip-path="url(#d18c46dfe4)"><g clip-path="url(#1525182d46)"><path fill="#ea0e96" d="M 1222.644531 267.539062 L 923.316406 555.011719 L 1074.085938 565.453125 C 1043.84375 696.050781 942.558594 855.257812 789.980469 993.488281 C 549.089844 1211.75 268.691406 1297.722656 150.78125 1192.988281 C 154.371094 1197.832031 158.203125 1202.503906 162.28125 1207.007812 C 292.675781 1350.925781 624.386719 1262.824219 903.175781 1010.230469 C 1046.023438 880.804688 1147.230469 733.320312 1194.441406 600.890625 L 1319.035156 666.027344 L 1222.644531 267.539062 " fill-opacity="1" fill-rule="nonzero"/></g></g></g><g clip-path="url(#d934e332e1)"><g clip-path="url(#d92744f456)"><g clip-path="url(#d74aaa38ba)"><path fill="#ffffff" d="M 172.757812 1172.925781 C 188.40625 1199.199219 225.292969 1210.433594 276.152344 1208.226562 C 253.238281 1203.324219 138.007812 1184.507812 221.089844 1022.261719 C 171.949219 1083.882812 152.171875 1138.367188 172.757812 1172.925781 " fill-opacity="1" fill-rule="nonzero"/></g></g></g><g clip-path="url(#116172aa95)"><g clip-path="url(#bd12435135)"><g clip-path="url(#9b85bda882)"><path fill="#c8bdff" d="M 1191.550781 812.558594 L 1050.195312 876.496094 L 1094.910156 899.660156 C 1033.640625 984.832031 934.425781 1077.402344 810.921875 1157.949219 C 621.894531 1281.210938 429.957031 1341.121094 318.828125 1320.722656 C 412.664062 1379.15625 639.441406 1321.886719 862.191406 1176.632812 C 979.914062 1099.867188 1075.613281 1012.144531 1137.375 930.34375 L 1175.328125 968.4375 L 1191.550781 812.558594 " fill-opacity="1" fill-rule="nonzero"/></g></g></g></svg>