<svg version="1.1" id="Layer_1" xmlns="http://www.w3.org/2000/svg" xmlns:xlink="http://www.w3.org/1999/xlink" x="0px" y="0px"
	 width="100%" viewBox="0 0 500 500" enable-background="new 0 0 500 500" xml:space="preserve">
<path fill="#000000" opacity="1.000000" stroke="none" 
	d="
M232.000000,501.000000 
	C154.666687,501.000000 77.833366,501.000000 1.000041,501.000000 
	C1.000027,334.333405 1.000027,167.666779 1.000014,1.000131 
	C167.666565,1.000087 334.333130,1.000087 500.999756,1.000044 
	C500.999847,167.666519 500.999847,334.333038 500.999939,500.999786 
	C411.500000,501.000000 322.000000,501.000000 232.000000,501.000000 
M322.995117,282.004883 
	C322.995117,282.004883 323.010406,282.007263 322.880707,281.494385 
	C322.586121,281.323364 322.291565,281.152344 321.995056,281.005707 
	C321.995056,281.005707 322.019379,281.002747 321.873749,280.505859 
	C321.596680,280.312866 321.319611,280.119843 320.769287,279.303436 
	C311.854797,272.244720 301.701935,267.738129 290.944489,264.085175 
	C293.209290,261.315521 295.474121,258.545898 297.624603,255.916046 
	C300.145721,257.561005 302.245544,258.931091 305.341583,260.951141 
	C305.341583,251.592224 305.341583,243.418930 305.341583,234.657089 
	C298.239594,237.759583 291.137939,240.861923 284.232147,243.296234 
	C291.503540,230.190689 298.774933,217.085159 306.149292,203.794052 
	C311.259186,206.171524 317.345398,209.003220 323.431580,211.834915 
	C323.919525,211.621872 324.407501,211.408813 324.895447,211.195770 
	C318.775757,190.566238 312.656036,169.936707 306.214294,148.221619 
	C303.881653,150.440125 302.331573,151.796280 300.915955,153.280640 
	C293.958801,160.575546 287.037384,167.904480 279.390869,174.857956 
	C276.211914,161.948578 269.475830,151.787231 256.780945,145.369339 
	C255.517166,144.912201 254.253387,144.455078 252.997330,144.003159 
	C252.997330,144.003159 253.003510,144.010147 252.755569,143.351196 
	C251.779007,142.968597 250.802429,142.585999 249.251007,142.110535 
	C248.864868,142.073135 248.478729,142.035751 247.731277,141.321304 
	C240.215866,137.754929 232.242645,137.999557 224.372818,139.117035 
	C214.796402,140.476837 206.009445,143.974747 199.002090,151.002869 
	C199.002090,151.002869 198.993530,150.976379 198.352707,151.176971 
	C197.224060,152.779312 196.095398,154.381653 194.998840,156.003906 
	C194.998840,156.003906 194.986465,155.968414 194.254913,155.986191 
	C187.151382,163.168762 183.352814,172.095963 182.238815,181.855331 
	C181.673889,186.804535 183.309540,192.004898 184.012100,197.882248 
	C184.349319,199.294067 184.454422,200.814926 185.058807,202.101212 
	C193.199585,219.426620 201.420166,236.714493 209.598969,254.022079 
	C214.169006,263.692963 218.698334,273.383087 222.873840,283.666565 
	C216.178833,287.711731 209.480408,291.751251 202.789627,295.803436 
	C193.226166,301.595428 183.167038,305.900604 171.037872,306.066040 
	C168.713562,305.379181 166.389252,304.692322 163.817078,303.337982 
	C157.071762,300.357727 153.838303,295.630859 154.636154,288.785858 
	C155.092133,287.858612 155.548111,286.931396 156.628357,285.731262 
	C162.609833,280.489655 169.316910,276.696411 177.160156,274.913910 
	C179.567245,274.366852 181.797958,273.043701 184.921127,271.995270 
	C187.612076,271.603607 190.303024,271.211975 193.830215,270.963165 
	C198.239563,270.365814 202.648911,269.768463 207.815216,269.068573 
	C206.180038,266.452057 205.095490,264.716614 204.000336,263.001678 
	C204.000336,263.001678 204.020996,262.989563 203.958817,262.234772 
	C201.497299,256.953430 200.306107,256.649261 194.438812,260.031494 
	C194.438812,260.031494 193.975967,260.157532 193.469940,260.089661 
	C193.280960,260.358307 193.091980,260.626923 192.038071,260.982513 
	C188.025665,261.712463 184.013275,262.442413 179.319656,263.035614 
	C178.527542,263.328613 177.735428,263.621582 176.118698,263.999084 
	C169.735275,266.327942 163.351868,268.656799 157.003143,271.000824 
	C157.003143,271.000824 156.987976,270.966095 156.276108,271.021362 
	C154.484390,272.001343 152.692673,272.981354 150.495331,274.046722 
	C150.495331,274.046722 150.098221,274.165710 149.406143,274.012787 
	C147.922943,275.334808 146.439743,276.656860 145.002213,277.999023 
	C145.002213,277.999023 144.980515,277.954071 144.316772,278.040100 
	C143.875687,278.695007 143.434586,279.349915 143.002365,280.002441 
	C143.002365,280.002441 143.006943,279.994171 142.382172,280.031677 
	C141.915619,280.353149 141.449066,280.674622 141.001831,281.002441 
	C141.001831,281.002441 140.997177,280.982910 140.419205,281.138824 
	C139.956070,281.768188 139.492935,282.397552 139.000000,283.000000 
	C139.000000,283.000000 139.027054,283.028839 138.357620,283.213593 
	C130.380783,295.068207 131.231293,304.256134 141.000000,312.000000 
	C141.000000,312.000000 141.018265,311.979462 141.212219,312.599243 
	C142.120529,313.101898 143.028824,313.604584 144.250244,314.707397 
	C146.130829,315.833740 148.011414,316.960083 149.990738,318.802490 
	C151.997543,319.798126 154.004349,320.793732 156.474503,321.948547 
	C156.474503,321.948547 156.958405,322.025208 157.302948,322.665466 
	C160.871490,324.032501 164.440018,325.399536 168.690170,327.137054 
	C170.659988,327.807953 172.583389,328.723938 174.607651,329.107330 
	C183.389160,330.770416 192.200073,332.278107 201.821426,334.002167 
	C206.856232,334.609070 211.891037,335.215973 217.525955,335.960510 
	C217.726471,335.916718 217.926971,335.872894 218.533035,335.942627 
	C218.533035,335.942627 218.953903,335.926453 219.296768,336.756226 
	C223.727173,336.838684 228.160843,337.063629 232.587036,336.962158 
	C236.720596,336.867432 240.846207,336.426147 245.882339,335.990112 
	C261.422455,335.206055 276.673004,333.149811 291.589966,328.234161 
	C305.143005,323.767975 318.715729,319.837006 327.685760,306.705200 
	C331.605896,302.611908 332.095703,296.138885 328.881470,289.342346 
	C328.596191,288.901672 328.310944,288.460999 327.973480,287.359131 
	C327.327881,286.562439 326.682251,285.765717 326.000000,284.996338 
	C326.000000,284.996338 326.035889,284.974213 325.896942,284.455444 
	C325.594635,284.287109 325.292328,284.118774 324.823792,283.507629 
	C324.636292,283.229279 324.376984,283.062592 323.888611,282.497498 
	C323.589935,282.328186 323.291260,282.158875 322.995117,282.004883 
z"/>
<path fill="#6722FA" opacity="1.000000" stroke="none" 
	d="
M223.246002,283.064545 
	C218.698334,273.383087 214.169006,263.692963 209.598969,254.022079 
	C201.420166,236.714493 193.199585,219.426620 185.058807,202.101212 
	C184.454422,200.814926 184.349319,199.294067 184.003036,197.013184 
	C183.243515,183.838165 184.222885,171.965866 192.110535,161.658508 
	C193.379974,159.999649 194.043076,157.876785 194.986465,155.968414 
	C194.986465,155.968414 194.998840,156.003906 195.336166,155.955902 
	C196.780182,154.264053 197.886856,152.620224 198.993530,150.976379 
	C198.993530,150.976379 199.002090,151.002869 199.360489,151.001465 
	C201.053177,150.397415 202.435730,149.882446 203.714157,149.178375 
	C214.670715,143.144073 225.904907,138.244659 238.896530,140.375732 
	C241.967957,140.879532 245.027557,141.455551 248.092590,141.998367 
	C248.478729,142.035751 248.864868,142.073135 249.665878,142.467590 
	C251.055008,143.219803 252.029251,143.614975 253.003510,144.010147 
	C253.003510,144.010147 252.997330,144.003159 253.081451,144.350250 
	C254.473633,145.128448 255.781693,145.559586 257.089752,145.990723 
	C269.475830,151.787231 276.211914,161.948578 279.612640,175.343750 
	C274.280365,182.242737 268.726318,188.655930 262.073029,196.338409 
	C269.319733,196.689392 275.117340,196.970200 280.901642,197.616653 
	C275.587341,209.870422 270.249420,221.742310 265.008698,233.656967 
	C263.513702,237.055832 262.300934,240.578842 260.999359,244.040375 
	C261.039978,244.035843 261.038177,243.954132 260.753662,243.626434 
	C259.932709,244.482742 259.396271,245.666718 258.607391,247.081650 
	C255.078140,251.831879 252.354996,256.921936 248.408295,260.750702 
	C240.370132,268.548706 231.672150,275.666504 223.246002,283.064545 
M210.008865,199.000000 
	C210.008865,199.000000 210.034485,198.940048 210.011307,199.690781 
	C210.694092,200.784805 211.376877,201.878845 212.006622,203.001694 
	C212.006622,203.001694 212.029739,202.945923 212.025330,203.698685 
	C213.361786,204.786423 214.698242,205.874176 216.004715,207.001617 
	C216.004715,207.001617 216.025650,206.958954 216.227631,207.415314 
	C216.425613,207.700272 216.690643,207.893036 216.996307,207.998749 
	C216.996307,207.998749 217.012207,207.976395 217.081406,208.685028 
	C218.394836,209.452515 219.708267,210.220001 221.515442,211.095001 
	C221.676636,211.143875 221.837814,211.192764 222.275620,211.582825 
	C222.495789,211.793442 222.757446,211.914047 223.792725,212.014633 
	C224.527527,212.002914 225.262314,211.991211 226.498001,212.013214 
	C226.665192,212.006271 226.832397,211.999313 227.004196,211.998566 
	C227.004196,211.998566 227.013199,212.002609 227.412491,212.660965 
	C234.113815,215.826569 244.934464,212.833160 248.003571,207.003922 
	C248.003571,207.003922 247.966599,206.994888 248.410461,206.760101 
	C248.602173,206.490601 248.793900,206.221085 249.001312,206.000656 
	C249.001312,206.000656 248.954498,205.979126 249.653473,205.908127 
	C256.273621,201.641815 257.747559,194.823624 257.851562,187.802292 
	C257.936920,182.038162 256.689240,176.348633 251.000000,173.000000 
	C251.000000,173.000000 250.970810,173.032288 250.989105,172.274597 
	C250.511932,168.676071 248.183121,167.720917 245.002319,168.005920 
	C245.002319,168.005920 244.958679,168.055298 244.891495,167.320435 
	C241.790741,162.029022 236.269684,163.057037 231.656219,162.937408 
	C228.461670,162.854584 225.210907,164.939148 221.701553,166.554489 
	C221.148727,166.688293 220.595917,166.822083 219.608078,166.548660 
	C218.757141,167.377213 217.906219,168.205765 217.020798,169.025726 
	C217.020798,169.025726 217.027603,169.060623 216.292084,169.010086 
	C211.179550,171.000488 208.375702,175.667038 208.707077,181.775681 
	C208.809952,186.514313 208.912827,191.252930 208.554718,196.416336 
	C209.058365,197.266891 209.562027,198.117462 210.008865,199.000000 
z"/>
<path fill="#E11597" opacity="1.000000" stroke="none" 
	d="
M280.914948,197.251022 
	C275.117340,196.970200 269.319733,196.689392 262.073029,196.338409 
	C268.726318,188.655930 274.280365,182.242737 279.968872,175.525467 
	C287.037384,167.904480 293.958801,160.575546 300.915955,153.280640 
	C302.331573,151.796280 303.881653,150.440125 306.214294,148.221619 
	C312.656036,169.936707 318.775757,190.566238 324.895447,211.195770 
	C324.407501,211.408813 323.919525,211.621872 323.431580,211.834915 
	C317.345398,209.003220 311.259186,206.171524 306.149292,203.794052 
	C298.774933,217.085159 291.503540,230.190689 284.056030,243.882935 
	C283.594482,244.661087 283.309021,244.852539 282.679626,245.100861 
	C278.821533,249.761337 275.307373,254.364899 271.489075,259.108643 
	C267.863220,262.759796 264.541504,266.270782 260.880981,269.920471 
	C253.622101,276.147186 246.701981,282.235260 239.438873,288.299805 
	C235.163422,291.112793 231.230942,293.949249 226.941238,296.898987 
	C223.632080,298.698425 220.800949,300.660278 217.704575,302.016602 
	C209.784683,305.485870 201.746658,308.685455 193.328888,312.016876 
	C186.144592,312.684113 179.391495,313.783539 172.628845,313.846008 
	C165.466629,313.912140 158.342590,312.842468 152.581970,307.609528 
	C154.399887,307.196655 156.118332,307.704407 157.793274,307.587708 
	C162.459717,307.262634 167.108109,306.678406 171.763626,306.196503 
	C183.167038,305.900604 193.226166,301.595428 202.789627,295.803436 
	C209.480408,291.751251 216.178833,287.711731 223.059921,283.365540 
	C231.672150,275.666504 240.370132,268.548706 248.408295,260.750702 
	C252.354996,256.921936 255.078140,251.831879 258.949310,247.105179 
	C260.041809,245.916550 260.539978,244.935333 261.038147,243.954132 
	C261.038177,243.954132 261.039978,244.035843 261.345886,243.934982 
	C267.352234,234.118347 273.344055,224.557159 278.619202,214.615723 
	C280.944153,210.234177 281.712433,205.044647 283.382538,200.290466 
	C284.317444,197.629044 283.190063,197.083252 280.914948,197.251022 
z"/>
<path fill="#6623F8" opacity="1.000000" stroke="none" 
	d="
M218.953903,335.926453 
	C218.953903,335.926453 218.533035,335.942627 218.202942,335.748413 
	C217.557175,335.643768 217.241516,335.733307 216.925842,335.822876 
	C211.891037,335.215973 206.856232,334.609070 201.279617,333.570618 
	C199.884048,332.767273 199.063766,332.243134 198.171387,332.047058 
	C188.790131,329.985687 179.397339,327.976746 170.211090,325.716675 
	C171.610870,324.665802 172.807281,323.851624 174.363037,323.019165 
	C175.199936,322.946930 175.677521,322.893005 176.117844,322.862305 
	C176.080597,322.885559 176.050690,322.803009 176.294556,323.099792 
	C177.538696,323.534271 178.538986,323.671936 179.771759,323.711823 
	C180.328018,323.687714 180.651779,323.761322 181.272247,324.132080 
	C185.601120,324.379150 189.680359,324.687439 193.650528,324.165680 
	C196.836288,323.747009 199.889771,322.321716 203.360443,321.229492 
	C204.965012,321.028687 206.211090,320.941498 207.853302,320.886414 
	C209.140182,320.527191 210.030914,320.135895 210.903839,319.790649 
	C210.886047,319.836731 210.806290,319.778503 211.156494,319.840729 
	C212.338715,319.603088 213.170746,319.303223 214.358017,318.982483 
	C216.744431,318.442169 218.760132,317.556000 220.809586,317.469452 
	C228.032318,317.164368 235.319412,317.638489 242.485123,316.889465 
	C255.798904,315.497803 269.063354,313.577881 282.300964,311.566193 
	C284.689728,311.203186 286.851471,309.345947 289.494843,308.107025 
	C296.017151,305.961212 302.170197,304.040833 306.730133,298.883850 
	C310.740540,294.348389 310.816193,291.868225 307.545410,286.828979 
	C304.544617,282.205719 300.388458,279.614746 295.410889,277.900970 
	C291.438232,276.533203 287.479156,275.125916 283.358826,273.418518 
	C285.737549,270.321930 288.271515,267.542999 290.805450,264.764038 
	C301.701935,267.738129 311.854797,272.244720 321.000214,279.849182 
	C321.493896,280.597504 321.756622,280.800140 322.019379,281.002747 
	C322.019379,281.002747 321.995056,281.005707 322.103271,281.219147 
	C322.411896,281.715759 322.678192,281.907318 323.010406,282.007263 
	C323.010406,282.007263 322.995117,282.004883 323.107574,282.223938 
	C323.495300,282.631195 323.770569,282.819397 324.045868,283.007599 
	C324.376984,283.062592 324.636292,283.229279 325.015106,283.960205 
	C325.482910,284.599915 325.759399,284.787079 326.035889,284.974213 
	C326.035889,284.974213 326.000000,284.996338 326.002502,285.334564 
	C326.678558,286.455292 327.352112,287.237793 328.025665,288.020325 
	C328.310944,288.460999 328.596191,288.901672 328.708069,289.916321 
	C328.009277,295.932556 327.483856,301.374817 326.958405,306.817108 
	C318.715729,319.837006 305.143005,323.767975 291.589966,328.234161 
	C276.673004,333.149811 261.422455,335.206055 245.201904,335.996704 
	C244.521469,336.003265 244.081650,335.829346 243.733902,335.591309 
	C235.549789,335.511475 227.713440,335.669678 219.650055,335.887848 
	C219.423050,335.947845 218.953903,335.926453 218.953903,335.926453 
z"/>
<path fill="#C9BDF9" opacity="1.000000" stroke="none" 
	d="
M290.874969,264.424622 
	C288.271515,267.542999 285.737549,270.321930 282.964233,273.526093 
	C281.890259,274.400879 280.856598,274.667603 280.250763,275.327271 
	C270.040894,286.444275 257.762238,294.995911 245.242493,303.158478 
	C238.433624,307.597717 231.076553,311.196075 223.597717,315.240845 
	C219.659088,316.454132 216.089508,317.600220 212.260864,318.789246 
	C211.603317,319.147614 211.204803,319.463074 210.806290,319.778503 
	C210.806290,319.778503 210.886047,319.836731 210.530396,319.784424 
	C209.268875,320.106140 208.363007,320.480225 207.457153,320.854309 
	C206.211090,320.941498 204.965012,321.028687 202.969131,321.206421 
	C195.138062,322.142975 188.056793,322.988983 180.975540,323.834961 
	C180.651779,323.761322 180.328018,323.687714 179.482971,323.468445 
	C177.991379,323.149567 177.021027,322.976288 176.050690,322.803009 
	C176.050690,322.803009 176.080597,322.885559 175.954605,322.612122 
	C175.272324,322.168304 174.716019,321.997955 174.126373,321.865265 
	C174.093002,321.902893 174.193298,321.895325 174.201050,321.711853 
	C174.208801,321.528351 174.240372,321.162384 174.691650,321.174500 
	C184.861816,321.692627 194.190826,319.936554 203.158722,316.240356 
	C204.047913,315.873840 204.708420,314.952515 205.894485,314.201416 
	C209.580399,312.729004 212.998581,311.617096 216.083160,309.904358 
	C223.503281,305.784393 230.767044,301.382843 238.448364,297.053955 
	C240.386124,295.953888 242.069733,295.017181 243.536255,293.815582 
	C252.720901,286.290192 261.857117,278.705750 271.363953,271.076050 
	C274.523468,268.345154 277.345917,265.696381 280.067474,262.947723 
	C280.173340,262.840820 279.312195,261.776337 279.265564,261.099854 
	C283.016296,257.542053 286.403137,254.042465 289.538666,250.802567 
	C286.766663,248.352432 284.895081,246.698196 283.023529,245.043976 
	C283.309021,244.852539 283.594482,244.661087 283.958130,244.216949 
	C291.137939,240.861923 298.239594,237.759583 305.341583,234.657089 
	C305.341583,243.418930 305.341583,251.592224 305.341583,260.951141 
	C302.245544,258.931091 300.145721,257.561005 297.624603,255.916046 
	C295.474121,258.545898 293.209290,261.315521 290.874969,264.424622 
z"/>
<path fill="#6A24F0" opacity="1.000000" stroke="none" 
	d="
M205.475067,314.288696 
	C204.708420,314.952515 204.047913,315.873840 203.158722,316.240356 
	C194.190826,319.936554 184.861816,321.692627 174.529358,321.212036 
	C173.915802,321.237427 173.795044,321.636261 173.795044,321.636261 
	C173.795044,321.636261 174.193298,321.895325 174.193298,321.895325 
	C174.193298,321.895325 174.093002,321.902893 174.073975,322.166443 
	C174.037857,322.632446 174.020767,322.834961 174.003693,323.037445 
	C172.807281,323.851624 171.610870,324.665802 169.954956,325.614685 
	C169.001129,325.504303 168.506821,325.259186 167.653946,324.950439 
	C163.849731,323.932922 160.404068,322.979065 156.958405,322.025208 
	C156.958405,322.025208 156.474503,321.948547 156.159851,321.546844 
	C153.860809,320.125549 151.876419,319.105988 149.892014,318.086395 
	C148.011414,316.960083 146.130829,315.833740 144.044250,314.064880 
	C142.898239,312.941406 141.958252,312.460449 141.018265,311.979462 
	C141.018265,311.979462 141.000000,312.000000 141.012329,311.622955 
	C140.486862,310.062622 140.136475,308.740753 139.380753,307.718567 
	C134.559448,301.197266 132.793411,294.567139 137.921082,287.294189 
	C138.713074,286.170868 138.679062,284.465210 139.027054,283.028839 
	C139.027054,283.028839 139.000000,283.000000 139.329987,282.961792 
	C140.105713,282.276703 140.551453,281.629822 140.997192,280.982910 
	C140.997177,280.982910 141.001831,281.002441 141.290894,280.983124 
	C142.055634,280.640594 142.531281,280.317383 143.006943,279.994171 
	C143.006943,279.994171 143.002365,280.002441 143.313782,279.950134 
	C144.076981,279.249878 144.528748,278.601990 144.980515,277.954071 
	C144.980515,277.954071 145.002213,277.999023 145.340088,277.992126 
	C147.151382,276.712067 148.624802,275.438904 150.098221,274.165710 
	C150.098221,274.165710 150.495331,274.046722 151.054306,274.008545 
	C152.750214,273.684357 153.887131,273.398285 155.016708,273.478149 
	C154.352432,275.559845 153.695511,277.275635 152.719971,279.134399 
	C147.370880,282.246948 147.068237,287.530823 146.145538,292.431610 
	C146.008850,293.157562 147.200638,294.133636 147.833588,295.249390 
	C147.840561,295.672028 147.791733,295.839325 147.615845,296.101318 
	C147.304642,296.510345 147.362518,296.780975 147.751511,297.228210 
	C147.840607,297.448517 148.035263,297.882080 148.121170,298.120209 
	C148.432770,298.608459 148.658463,298.858582 148.914658,299.303833 
	C148.945160,299.498993 149.019806,299.886963 149.123459,300.124695 
	C149.503128,300.561127 149.779160,300.759857 150.027466,300.977966 
	C149.999741,300.997345 150.041885,300.944214 150.151581,301.174469 
	C150.533707,301.599701 150.806152,301.794647 151.271790,302.044098 
	C151.464996,302.098572 151.854935,302.194061 151.989594,302.531006 
	C155.807709,306.362701 159.997162,304.545502 164.064957,304.005463 
	C166.389252,304.692322 168.713562,305.379181 171.400757,306.131287 
	C167.108109,306.678406 162.459717,307.262634 157.793274,307.587708 
	C156.118332,307.704407 154.399887,307.196655 152.581970,307.609528 
	C158.342590,312.842468 165.466629,313.912140 172.628845,313.846008 
	C179.391495,313.783539 186.144592,312.684113 193.524353,312.355133 
	C197.922897,313.209167 201.698975,313.748932 205.475067,314.288696 
z"/>
<path fill="#6722FA" opacity="1.000000" stroke="none" 
	d="
M153.038574,278.991455 
	C153.695511,277.275635 154.352432,275.559845 155.322968,273.381653 
	C156.087036,272.268188 156.537506,271.617157 156.987976,270.966095 
	C156.987976,270.966095 157.003143,271.000824 157.385559,271.016602 
	C161.175079,270.015289 164.582199,268.998199 168.277115,267.953583 
	C169.039047,267.630280 169.513184,267.334473 170.316284,266.882904 
	C172.765396,266.150208 174.885559,265.573273 177.338791,264.988434 
	C178.448196,264.377808 179.224533,263.775085 180.000870,263.172394 
	C184.013275,262.442413 188.025665,261.712463 192.682068,260.871826 
	C193.585297,260.605804 193.801941,260.404602 193.975967,260.157532 
	C193.975967,260.157532 194.438812,260.031494 195.074646,259.998474 
	C198.480637,260.973480 201.250824,261.981506 204.020996,262.989563 
	C204.020996,262.989563 204.000336,263.001678 203.983276,263.383667 
	C204.068253,267.912170 201.168671,267.646088 198.265427,268.061523 
	C196.414581,268.326385 194.744888,269.857147 192.993973,270.820312 
	C190.303024,271.211975 187.612076,271.603607 184.081223,272.013428 
	C172.714844,272.756226 163.525070,276.530670 155.653198,283.938690 
	C154.574966,283.258484 153.794952,282.632019 153.015167,281.628906 
	C153.023102,280.498627 153.030838,279.745056 153.038574,278.991455 
z"/>
<path fill="#6436D1" opacity="1.000000" stroke="none" 
	d="
M152.719971,279.134399 
	C153.030838,279.745056 153.023102,280.498627 152.714188,281.701721 
	C152.096878,285.127869 151.780746,288.104462 151.464630,291.081085 
	C151.755829,291.127930 152.047028,291.174774 152.338226,291.221588 
	C152.817444,290.435394 153.296661,289.649200 153.836563,288.900513 
	C153.897247,288.938019 154.018372,289.013519 154.018372,289.013519 
	C153.838303,295.630859 157.071762,300.357727 163.941010,303.671722 
	C159.997162,304.545502 155.807709,306.362701 152.356171,302.482483 
	C153.812988,302.427765 155.037903,302.758545 156.262802,303.089325 
	C150.449158,298.791687 149.730820,292.886353 149.020279,286.566010 
	C148.606125,289.375336 148.191971,292.184662 147.777802,294.993988 
	C147.200638,294.133636 146.008850,293.157562 146.145538,292.431610 
	C147.068237,287.530823 147.370880,282.246948 152.719971,279.134399 
z"/>
<path fill="#6436D1" opacity="1.000000" stroke="none" 
	d="
M247.911926,141.659836 
	C245.027557,141.455551 241.967957,140.879532 238.896530,140.375732 
	C225.904907,138.244659 214.670715,143.144073 203.714157,149.178375 
	C202.435730,149.882446 201.053177,150.397415 199.347504,150.996338 
	C206.009445,143.974747 214.796402,140.476837 224.372818,139.117035 
	C232.242645,137.999557 240.215866,137.754929 247.911926,141.659836 
z"/>
<path fill="#6436D1" opacity="1.000000" stroke="none" 
	d="
M194.620697,155.977295 
	C194.043076,157.876785 193.379974,159.999649 192.110535,161.658508 
	C184.222885,171.965866 183.243515,183.838165 183.972137,196.617920 
	C183.309540,192.004898 181.673889,186.804535 182.238815,181.855331 
	C183.352814,172.095963 187.151382,163.168762 194.620697,155.977295 
z"/>
<path fill="#6630E2" opacity="1.000000" stroke="none" 
	d="
M168.012512,325.014069 
	C168.506821,325.259186 169.001129,325.504303 169.751587,325.851379 
	C179.397339,327.976746 188.790131,329.985687 198.171387,332.047058 
	C199.063766,332.243134 199.884048,332.767273 200.869049,333.490692 
	C192.200073,332.278107 183.389160,330.770416 174.607651,329.107330 
	C172.583389,328.723938 170.659988,327.807953 168.354340,326.659698 
	C168.016510,325.792908 168.014511,325.403503 168.012512,325.014069 
z"/>
<path fill="#6436D1" opacity="1.000000" stroke="none" 
	d="
M155.951431,283.992462 
	C163.525070,276.530670 172.714844,272.756226 183.675385,272.053772 
	C181.797958,273.043701 179.567245,274.366852 177.160156,274.913910 
	C169.316910,276.696411 162.609833,280.489655 156.240387,285.798706 
	C155.852417,285.866150 155.700607,285.728241 155.774261,285.444733 
	C155.882416,284.771637 155.916931,284.382050 155.951431,283.992462 
z"/>
<path fill="#6436D1" opacity="1.000000" stroke="none" 
	d="
M138.692337,283.121216 
	C138.679062,284.465210 138.713074,286.170868 137.921082,287.294189 
	C132.793411,294.567139 134.559448,301.197266 139.380753,307.718567 
	C140.136475,308.740753 140.486862,310.062622 141.022675,311.613892 
	C131.231293,304.256134 130.380783,295.068207 138.692337,283.121216 
z"/>
<path fill="#6436D1" opacity="1.000000" stroke="none" 
	d="
M193.412094,270.891724 
	C194.744888,269.857147 196.414581,268.326385 198.265427,268.061523 
	C201.168671,267.646088 204.068253,267.912170 203.988571,263.373444 
	C205.095490,264.716614 206.180038,266.452057 207.815216,269.068573 
	C202.648911,269.768463 198.239563,270.365814 193.412094,270.891724 
z"/>
<path fill="#6436D1" opacity="1.000000" stroke="none" 
	d="
M327.322083,306.761169 
	C327.483856,301.374817 328.009277,295.932556 328.745544,290.201874 
	C332.095703,296.138885 331.605896,302.611908 327.322083,306.761169 
z"/>
<path fill="#6436D1" opacity="1.000000" stroke="none" 
	d="
M167.989319,267.981079 
	C164.582199,268.998199 161.175079,270.015289 157.368195,271.009033 
	C163.351868,268.656799 169.735275,266.327942 176.552094,264.226837 
	C176.992233,264.635162 176.998978,264.815765 177.005722,264.996338 
	C174.885559,265.573273 172.765396,266.150208 170.029694,266.909790 
	C168.939209,267.388672 168.464264,267.684906 167.989319,267.981079 
z"/>
<path fill="#C9BDF9" opacity="1.000000" stroke="none" 
	d="
M244.081650,335.829346 
	C244.081650,335.829346 244.521469,336.003265 244.748398,336.070343 
	C240.846207,336.426147 236.720596,336.867432 232.587036,336.962158 
	C228.160843,337.063629 223.727173,336.838684 219.125336,336.341339 
	C218.953903,335.926453 219.423050,335.947845 220.130432,335.946899 
	C228.585770,335.907104 236.333710,335.868256 244.081650,335.829346 
z"/>
<path fill="#6436D1" opacity="1.000000" stroke="none" 
	d="
M167.653961,324.950439 
	C168.014511,325.403503 168.016510,325.792908 168.013535,326.474487 
	C164.440018,325.399536 160.871490,324.032501 157.130676,322.345337 
	C160.404068,322.979065 163.849731,323.932922 167.653961,324.950439 
z"/>
<path fill="#6436D1" opacity="1.000000" stroke="none" 
	d="
M203.989899,262.612183 
	C201.250824,261.981506 198.480637,260.973480 195.308304,259.944397 
	C200.306107,256.649261 201.497299,256.953430 203.989899,262.612183 
z"/>
<path fill="#6436D1" opacity="1.000000" stroke="none" 
	d="
M149.941376,318.444458 
	C151.876419,319.105988 153.860809,320.125549 155.928192,321.467255 
	C154.004349,320.793732 151.997543,319.798126 149.941376,318.444458 
z"/>
<path fill="#6436D1" opacity="1.000000" stroke="none" 
	d="
M149.752182,274.089233 
	C148.624802,275.438904 147.151382,276.712067 145.317245,277.982056 
	C146.439743,276.656860 147.922943,275.334808 149.752182,274.089233 
z"/>
<path fill="#6436D1" opacity="1.000000" stroke="none" 
	d="
M198.673126,151.076675 
	C197.886856,152.620224 196.780182,154.264053 195.320129,155.945938 
	C196.095398,154.381653 197.224060,152.779312 198.673126,151.076675 
z"/>
<path fill="#6436D1" opacity="1.000000" stroke="none" 
	d="
M156.632050,270.993713 
	C156.537506,271.617157 156.087036,272.268188 155.330322,273.015747 
	C153.887131,273.398285 152.750214,273.684357 151.257126,273.965881 
	C152.692673,272.981354 154.484390,272.001343 156.632050,270.993713 
z"/>
<path fill="#6436D1" opacity="1.000000" stroke="none" 
	d="
M256.935364,145.680023 
	C255.781693,145.559586 254.473633,145.128448 253.077591,144.347626 
	C254.253387,144.455078 255.517166,144.912201 256.935364,145.680023 
z"/>
<path fill="#6A24F0" opacity="1.000000" stroke="none" 
	d="
M177.338791,264.988434 
	C176.998978,264.815765 176.992233,264.635162 176.964401,264.184570 
	C177.735428,263.621582 178.527542,263.328613 179.660263,263.104004 
	C179.224533,263.775085 178.448196,264.377808 177.338791,264.988434 
z"/>
<path fill="#6436D1" opacity="1.000000" stroke="none" 
	d="
M252.879547,143.680664 
	C252.029251,143.614975 251.055008,143.219803 249.953308,142.514023 
	C250.802429,142.585999 251.779007,142.968597 252.879547,143.680664 
z"/>
<path fill="#6436D1" opacity="1.000000" stroke="none" 
	d="
M141.115234,312.289368 
	C141.958252,312.460449 142.898239,312.941406 143.887680,313.764832 
	C143.028824,313.604584 142.120529,313.101898 141.115234,312.289368 
z"/>
<path fill="#6436D1" opacity="1.000000" stroke="none" 
	d="
M327.999573,287.689728 
	C327.352112,287.237793 326.678558,286.455292 326.020813,285.320923 
	C326.682251,285.765717 327.327881,286.562439 327.999573,287.689728 
z"/>
<path fill="#6436D1" opacity="1.000000" stroke="none" 
	d="
M155.928253,285.935150 
	C155.548111,286.931396 155.092133,287.858612 154.327271,288.899689 
	C154.018372,289.013519 153.897247,288.938019 153.901489,288.577728 
	C154.504028,287.387695 155.102310,286.557953 155.700592,285.728241 
	C155.700607,285.728241 155.852417,285.866150 155.928253,285.935150 
z"/>
<path fill="#6436D1" opacity="1.000000" stroke="none" 
	d="
M144.648651,277.997070 
	C144.528748,278.601990 144.076981,279.249878 143.309357,279.951294 
	C143.434586,279.349915 143.875687,278.695007 144.648651,277.997070 
z"/>
<path fill="#6436D1" opacity="1.000000" stroke="none" 
	d="
M140.708191,281.060852 
	C140.551453,281.629822 140.105713,282.276703 139.344894,282.975250 
	C139.492935,282.397552 139.956070,281.768188 140.708191,281.060852 
z"/>
<path fill="#6436D1" opacity="1.000000" stroke="none" 
	d="
M142.694550,280.012939 
	C142.531281,280.317383 142.055634,280.640594 141.281250,280.979950 
	C141.449066,280.674622 141.915619,280.353149 142.694550,280.012939 
z"/>
<path fill="#6436D1" opacity="1.000000" stroke="none" 
	d="
M217.225891,335.891693 
	C217.241516,335.733307 217.557175,335.643768 218.000153,335.691650 
	C217.926971,335.872894 217.726471,335.916718 217.225891,335.891693 
z"/>
<path fill="#6436D1" opacity="1.000000" stroke="none" 
	d="
M193.722961,260.123596 
	C193.801941,260.404602 193.585297,260.605804 193.114517,260.828369 
	C193.091980,260.626923 193.280960,260.358307 193.722961,260.123596 
z"/>
<path fill="#6436D1" opacity="1.000000" stroke="none" 
	d="
M321.946564,280.754303 
	C321.756622,280.800140 321.493896,280.597504 321.136841,280.160858 
	C321.319611,280.119843 321.596680,280.312866 321.946564,280.754303 
z"/>
<path fill="#6436D1" opacity="1.000000" stroke="none" 
	d="
M322.945557,281.750824 
	C322.678192,281.907318 322.411896,281.715759 322.104248,281.206970 
	C322.291565,281.152344 322.586121,281.323364 322.945557,281.750824 
z"/>
<path fill="#6436D1" opacity="1.000000" stroke="none" 
	d="
M323.967224,282.752563 
	C323.770569,282.819397 323.495300,282.631195 323.106323,282.216278 
	C323.291260,282.158875 323.589935,282.328186 323.967224,282.752563 
z"/>
<path fill="#6436D1" opacity="1.000000" stroke="none" 
	d="
M325.966431,284.714844 
	C325.759399,284.787079 325.482910,284.599915 325.098206,284.181580 
	C325.292328,284.118774 325.594635,284.287109 325.966431,284.714844 
z"/>
<path fill="#000000" opacity="1.000000" stroke="none" 
	d="
M225.997116,211.979492 
	C225.262314,211.991211 224.527527,212.002914 223.336395,211.746002 
	C222.586380,211.398773 222.292679,211.320206 221.998978,211.241638 
	C221.837814,211.192764 221.676636,211.143875 221.140091,210.729401 
	C219.513885,209.567993 218.263046,208.772202 217.012207,207.976395 
	C217.012207,207.976395 216.996307,207.998749 216.965149,207.728943 
	C216.631210,207.292419 216.328430,207.125687 216.025650,206.958954 
	C216.025650,206.958954 216.004715,207.001617 215.911499,206.678680 
	C214.555435,205.219147 213.292587,204.082535 212.029739,202.945923 
	C212.029739,202.945923 212.006622,203.001694 211.995483,202.637177 
	C211.334396,201.161804 210.684433,200.050919 210.034485,198.940048 
	C210.034485,198.940048 210.008865,199.000000 209.997391,198.648102 
	C209.662506,197.528000 209.339111,196.759781 209.015701,195.991562 
	C208.912827,191.252930 208.809952,186.514313 209.201172,181.234055 
	C212.139389,176.815155 214.583496,172.937897 217.027603,169.060623 
	C217.027603,169.060623 217.020798,169.025726 217.369888,169.013290 
	C218.493683,168.319199 219.268387,167.637527 220.043091,166.955872 
	C220.595917,166.822083 221.148727,166.688293 222.281036,166.292709 
	C230.414856,164.650589 237.903442,163.987686 244.958679,168.055298 
	C244.958679,168.055298 245.002319,168.005920 245.145782,168.341125 
	C247.183121,170.128326 249.076965,171.580307 250.970810,173.032288 
	C250.970810,173.032288 251.000000,173.000000 251.034332,173.377594 
	C251.361176,174.514526 251.507126,175.380005 251.968445,176.017136 
	C257.752838,184.005768 257.457977,192.043030 252.316360,200.186630 
	C251.125351,202.073029 250.071472,204.045990 248.954498,205.979126 
	C248.954498,205.979126 249.001312,206.000656 248.737305,206.050049 
	C248.304398,206.397934 248.135498,206.696411 247.966599,206.994888 
	C247.966599,206.994888 248.003571,207.003922 247.633240,207.023010 
	C241.139664,211.253662 234.352783,212.756256 227.013199,212.002609 
	C227.013199,212.002609 227.004196,211.998566 226.942200,211.760849 
	C226.585846,211.675262 226.291473,211.827377 225.997116,211.979492 
z"/>
<path fill="#000000" opacity="1.000000" stroke="none" 
	d="
M280.901642,197.616653 
	C283.190063,197.083252 284.317444,197.629044 283.382538,200.290466 
	C281.712433,205.044647 280.944153,210.234177 278.619202,214.615723 
	C273.344055,224.557159 267.352234,234.118347 261.305267,243.939514 
	C262.300934,240.578842 263.513702,237.055832 265.008698,233.656967 
	C270.249420,221.742310 275.587341,209.870422 280.901642,197.616653 
z"/>
<path fill="#6436D1" opacity="1.000000" stroke="none" 
	d="
M249.303986,205.943634 
	C250.071472,204.045990 251.125351,202.073029 252.316360,200.186630 
	C257.457977,192.043030 257.752838,184.005768 251.968445,176.017136 
	C251.507126,175.380005 251.361176,174.514526 251.018661,173.392273 
	C256.689240,176.348633 257.936920,182.038162 257.851562,187.802292 
	C257.747559,194.823624 256.273621,201.641815 249.303986,205.943634 
z"/>
<path fill="#6436D1" opacity="1.000000" stroke="none" 
	d="
M244.925079,167.687866 
	C237.903442,163.987686 230.414856,164.650589 222.422897,166.043106 
	C225.210907,164.939148 228.461670,162.854584 231.656219,162.937408 
	C236.269684,163.057037 241.790741,162.029022 244.925079,167.687866 
z"/>
<path fill="#6436D1" opacity="1.000000" stroke="none" 
	d="
M227.212845,212.331787 
	C234.352783,212.756256 241.139664,211.253662 247.626251,207.005310 
	C244.934464,212.833160 234.113815,215.826569 227.212845,212.331787 
z"/>
<path fill="#6436D1" opacity="1.000000" stroke="none" 
	d="
M216.659851,169.035355 
	C214.583496,172.937897 212.139389,176.815155 209.386414,180.855011 
	C208.375702,175.667038 211.179550,171.000488 216.659851,169.035355 
z"/>
<path fill="#6436D1" opacity="1.000000" stroke="none" 
	d="
M250.979950,172.653442 
	C249.076965,171.580307 247.183121,170.128326 245.122559,168.362366 
	C248.183121,167.720917 250.511932,168.676071 250.979950,172.653442 
z"/>
<path fill="#6436D1" opacity="1.000000" stroke="none" 
	d="
M212.027527,203.322296 
	C213.292587,204.082535 214.555435,205.219147 215.926498,206.658844 
	C214.698242,205.874176 213.361786,204.786423 212.027527,203.322296 
z"/>
<path fill="#6436D1" opacity="1.000000" stroke="none" 
	d="
M217.046814,208.330719 
	C218.263046,208.772202 219.513885,209.567993 220.893219,210.675629 
	C219.708267,210.220001 218.394836,209.452515 217.046814,208.330719 
z"/>
<path fill="#6436D1" opacity="1.000000" stroke="none" 
	d="
M210.022888,199.315414 
	C210.684433,200.050919 211.334396,201.161804 212.022003,202.622772 
	C211.376877,201.878845 210.694092,200.784805 210.022888,199.315414 
z"/>
<path fill="#6436D1" opacity="1.000000" stroke="none" 
	d="
M219.825592,166.752258 
	C219.268387,167.637527 218.493683,168.319199 217.387131,169.017578 
	C217.906219,168.205765 218.757141,167.377213 219.825592,166.752258 
z"/>
<path fill="#6436D1" opacity="1.000000" stroke="none" 
	d="
M208.785217,196.203949 
	C209.339111,196.759781 209.662506,197.528000 210.025787,198.632111 
	C209.562027,198.117462 209.058365,197.266891 208.785217,196.203949 
z"/>
<path fill="#000000" opacity="1.000000" stroke="none" 
	d="
M260.753662,243.626434 
	C260.539978,244.935333 260.041809,245.916550 259.201721,246.874222 
	C259.396271,245.666718 259.932709,244.482742 260.753662,243.626434 
z"/>
<path fill="#6436D1" opacity="1.000000" stroke="none" 
	d="
M222.137299,211.412231 
	C222.292679,211.320206 222.586380,211.398773 222.970337,211.710983 
	C222.757446,211.914047 222.495789,211.793442 222.137299,211.412231 
z"/>
<path fill="#6436D1" opacity="1.000000" stroke="none" 
	d="
M216.126648,207.187134 
	C216.328430,207.125687 216.631210,207.292419 216.978363,207.726379 
	C216.690643,207.893036 216.425613,207.700272 216.126648,207.187134 
z"/>
<path fill="#6436D1" opacity="1.000000" stroke="none" 
	d="
M248.188538,206.877502 
	C248.135498,206.696411 248.304398,206.397934 248.729462,206.025513 
	C248.793900,206.221085 248.602173,206.490601 248.188538,206.877502 
z"/>
<path fill="#6436D1" opacity="1.000000" stroke="none" 
	d="
M226.247559,211.996353 
	C226.291473,211.827377 226.585846,211.675262 226.939911,211.757751 
	C226.832397,211.999313 226.665192,212.006271 226.247559,211.996353 
z"/>
<path fill="#000000" opacity="1.000000" stroke="none" 
	d="
M271.009369,271.140839 
	C261.857117,278.705750 252.720901,286.290192 243.536255,293.815582 
	C242.069733,295.017181 240.386124,295.953888 238.245468,296.852051 
	C237.552719,296.556519 237.417374,296.421997 237.487732,295.984741 
	C238.389572,293.229095 239.085709,290.776215 239.781845,288.323303 
	C246.701981,282.235260 253.622101,276.147186 261.287781,269.981232 
	C265.025330,270.315826 268.017334,270.728333 271.009369,271.140839 
z"/>
<path fill="#000000" opacity="1.000000" stroke="none" 
	d="
M205.894485,314.201416 
	C201.698975,313.748932 197.922897,313.209167 193.951340,312.331146 
	C201.746658,308.685455 209.784683,305.485870 217.704575,302.016602 
	C220.800949,300.660278 223.632080,298.698425 227.355377,296.954773 
	C231.178513,296.693970 234.230270,296.490723 237.282028,296.287476 
	C237.417374,296.421997 237.552719,296.556519 237.890991,296.892944 
	C230.767044,301.382843 223.503281,305.784393 216.083160,309.904358 
	C212.998581,311.617096 209.580399,312.729004 205.894485,314.201416 
z"/>
<path fill="#6E2AE7" opacity="1.000000" stroke="none" 
	d="
M271.363953,271.076050 
	C268.017334,270.728333 265.025330,270.315826 261.626526,269.842529 
	C264.541504,266.270782 267.863220,262.759796 271.692749,259.458405 
	C274.434235,260.164703 276.667938,260.661377 278.901611,261.158051 
	C279.312195,261.776337 280.173340,262.840820 280.067474,262.947723 
	C277.345917,265.696381 274.523468,268.345154 271.363953,271.076050 
z"/>
<path fill="#000000" opacity="1.000000" stroke="none" 
	d="
M279.265564,261.099854 
	C276.667938,260.661377 274.434235,260.164703 271.996887,259.318237 
	C275.307373,254.364899 278.821533,249.761337 282.679626,245.100861 
	C284.895081,246.698196 286.766663,248.352432 289.538666,250.802567 
	C286.403137,254.042465 283.016296,257.542053 279.265564,261.099854 
z"/>
<path fill="#6E2AE7" opacity="1.000000" stroke="none" 
	d="
M237.487732,295.984741 
	C234.230270,296.490723 231.178513,296.693970 227.712616,296.841431 
	C231.230942,293.949249 235.163422,291.112793 239.438873,288.299805 
	C239.085709,290.776215 238.389572,293.229095 237.487732,295.984741 
z"/>
<path fill="#000000" opacity="1.000000" stroke="none" 
	d="
M223.966751,315.173706 
	C231.076553,311.196075 238.433624,307.597717 245.242493,303.158478 
	C257.762238,294.995911 270.040894,286.444275 280.250763,275.327271 
	C280.856598,274.667603 281.890259,274.400879 283.119446,273.843689 
	C287.479156,275.125916 291.438232,276.533203 295.410889,277.900970 
	C300.388458,279.614746 304.544617,282.205719 307.545410,286.828979 
	C310.816193,291.868225 310.740540,294.348389 306.730133,298.883850 
	C302.170197,304.040833 296.017151,305.961212 289.089111,308.017395 
	C268.841827,313.844269 248.818512,315.528015 228.633911,315.938507 
	C227.084030,315.970001 225.522736,315.441772 223.966751,315.173706 
z"/>
<path fill="#6436D1" opacity="1.000000" stroke="none" 
	d="
M223.597717,315.240845 
	C225.522736,315.441772 227.084030,315.970001 228.633911,315.938507 
	C248.818512,315.528015 268.841827,313.844269 288.712280,308.088928 
	C286.851471,309.345947 284.689728,311.203186 282.300964,311.566193 
	C269.063354,313.577881 255.798904,315.497803 242.485123,316.889465 
	C235.319412,317.638489 228.032318,317.164368 220.809586,317.469452 
	C218.760132,317.556000 216.744431,318.442169 213.985672,318.927551 
	C213.012039,318.844452 212.765976,318.795380 212.519913,318.746338 
	C216.089508,317.600220 219.659088,316.454132 223.597717,315.240845 
z"/>
<path fill="#6630E2" opacity="1.000000" stroke="none" 
	d="
M181.272247,324.132141 
	C188.056793,322.988983 195.138062,322.142975 202.610626,321.320068 
	C199.889771,322.321716 196.836288,323.747009 193.650528,324.165680 
	C189.680359,324.687439 185.601120,324.379150 181.272247,324.132141 
z"/>
<path fill="#6436D1" opacity="1.000000" stroke="none" 
	d="
M243.733902,335.591339 
	C236.333710,335.868256 228.585770,335.907104 220.357452,335.886902 
	C227.713440,335.669678 235.549789,335.511475 243.733902,335.591339 
z"/>
<path fill="#6630E2" opacity="1.000000" stroke="none" 
	d="
M176.294556,323.099792 
	C177.021027,322.976288 177.991379,323.149567 179.250488,323.566223 
	C178.538986,323.671936 177.538696,323.534271 176.294556,323.099792 
z"/>
<path fill="#6630E2" opacity="1.000000" stroke="none" 
	d="
M212.260864,318.789246 
	C212.765976,318.795380 213.012039,318.844452 213.630432,318.948425 
	C213.170746,319.303223 212.338715,319.603088 211.156494,319.840729 
	C211.204803,319.463074 211.603317,319.147614 212.260864,318.789246 
z"/>
<path fill="#6630E2" opacity="1.000000" stroke="none" 
	d="
M207.853302,320.886414 
	C208.363007,320.480225 209.268875,320.106140 210.548187,319.738342 
	C210.030914,320.135895 209.140182,320.527191 207.853302,320.886414 
z"/>
<path fill="#6630E2" opacity="1.000000" stroke="none" 
	d="
M174.363022,323.019165 
	C174.020767,322.834961 174.037857,322.632446 174.107346,322.128784 
	C174.716019,321.997955 175.272324,322.168304 175.991852,322.588867 
	C175.677521,322.893005 175.199936,322.946930 174.363022,323.019165 
z"/>
<path fill="#6630E2" opacity="1.000000" stroke="none" 
	d="
M174.201050,321.711853 
	C174.193298,321.895325 173.795044,321.636261 173.795044,321.636261 
	C173.795044,321.636261 173.915802,321.237427 174.078094,321.199890 
	C174.240372,321.162384 174.208801,321.528351 174.201050,321.711853 
z"/>
<path fill="#000000" opacity="1.000000" stroke="none" 
	d="
M147.833588,295.249390 
	C148.191971,292.184662 148.606125,289.375336 149.020279,286.566010 
	C149.730820,292.886353 150.449158,298.791687 156.262802,303.089325 
	C155.037903,302.758545 153.812988,302.427765 152.221512,302.145508 
	C151.854935,302.194061 151.464996,302.098572 151.210907,301.777588 
	C150.651840,301.285797 150.346863,301.115021 150.041885,300.944214 
	C150.041885,300.944214 149.999741,300.997345 149.959503,300.715759 
	C149.619461,300.251770 149.319641,300.069366 149.019806,299.886963 
	C149.019806,299.886963 148.945160,299.498993 148.985352,299.000488 
	C148.695450,298.295349 148.365356,298.088715 148.035263,297.882080 
	C148.035263,297.882080 147.840607,297.448517 147.831909,296.982605 
	C147.796432,296.346680 147.769669,296.176636 147.742889,296.006592 
	C147.791733,295.839325 147.840561,295.672028 147.833588,295.249390 
z"/>
<path fill="#6436D1" opacity="1.000000" stroke="none" 
	d="
M150.151581,301.174469 
	C150.346863,301.115021 150.651840,301.285797 151.017700,301.723114 
	C150.806152,301.794647 150.533707,301.599701 150.151581,301.174469 
z"/>
<path fill="#6436D1" opacity="1.000000" stroke="none" 
	d="
M149.123459,300.124695 
	C149.319641,300.069366 149.619461,300.251770 149.987244,300.696381 
	C149.779160,300.759857 149.503128,300.561127 149.123459,300.124695 
z"/>
<path fill="#6436D1" opacity="1.000000" stroke="none" 
	d="
M148.121170,298.120209 
	C148.365356,298.088715 148.695450,298.295349 148.954865,298.805328 
	C148.658463,298.858582 148.432770,298.608459 148.121170,298.120209 
z"/>
<path fill="#6436D1" opacity="1.000000" stroke="none" 
	d="
M147.615845,296.101318 
	C147.769669,296.176636 147.796432,296.346680 147.742813,296.762329 
	C147.362518,296.780975 147.304642,296.510345 147.615845,296.101318 
z"/>
<path fill="#6A24F0" opacity="1.000000" stroke="none" 
	d="
M155.774246,285.444733 
	C155.102310,286.557953 154.504028,287.387695 153.840820,288.540222 
	C153.296661,289.649200 152.817444,290.435394 152.338226,291.221588 
	C152.047028,291.174774 151.755829,291.127930 151.464630,291.081085 
	C151.780746,288.104462 152.096878,285.127869 152.713959,282.078430 
	C153.794952,282.632019 154.574966,283.258484 155.653198,283.938690 
	C155.916931,284.382050 155.882416,284.771637 155.774246,285.444733 
z"/>
<path fill="#6A24F0" opacity="1.000000" stroke="none" 
	d="
M168.277115,267.953613 
	C168.464264,267.684906 168.939209,267.388672 169.700729,267.065552 
	C169.513184,267.334473 169.039047,267.630280 168.277115,267.953613 
z"/>
</svg>