<svg xmlns="http://www.w3.org/2000/svg" xmlns:xlink="http://www.w3.org/1999/xlink" width="2000" zoomAndPan="magnify" viewBox="0 0 1500 1499.999933" height="2000" preserveAspectRatio="xMidYMid meet" version="1.0"><defs><clipPath id="21b8271a94"><path d="M 398.402344 774 L 987.902344 774 L 987.902344 1003.980469 L 398.402344 1003.980469 Z M 398.402344 774 " clip-rule="nonzero"/></clipPath><clipPath id="ba4846216b"><path d="M 545 414.480469 L 841 414.480469 L 841 887 L 545 887 Z M 545 414.480469 " clip-rule="nonzero"/></clipPath><clipPath id="0a5cbb7778"><path d="M 431 444 L 970 444 L 970 940 L 431 940 Z M 431 444 " clip-rule="nonzero"/></clipPath><clipPath id="1c3a06ea48"><path d="M 337.566406 706.269531 L 914.839844 444.742188 L 1063.707031 773.34375 L 486.433594 1034.871094 Z M 337.566406 706.269531 " clip-rule="nonzero"/></clipPath><clipPath id="1ea402551f"><path d="M 337.566406 706.269531 L 914.839844 444.742188 L 1063.707031 773.34375 L 486.433594 1034.871094 Z M 337.566406 706.269531 " clip-rule="nonzero"/></clipPath><clipPath id="8e1c1c8ba5"><path d="M 437 822 L 492 822 L 492 910 L 437 910 Z M 437 822 " clip-rule="nonzero"/></clipPath><clipPath id="5f8f7ea47d"><path d="M 337.566406 706.269531 L 914.839844 444.742188 L 1063.707031 773.34375 L 486.433594 1034.871094 Z M 337.566406 706.269531 " clip-rule="nonzero"/></clipPath><clipPath id="b8d10a23c4"><path d="M 337.566406 706.269531 L 914.839844 444.742188 L 1063.707031 773.34375 L 486.433594 1034.871094 Z M 337.566406 706.269531 " clip-rule="nonzero"/></clipPath><clipPath id="e236349f53"><path d="M 513 701 L 913 701 L 913 970 L 513 970 Z M 513 701 " clip-rule="nonzero"/></clipPath><clipPath id="7ff7af91fb"><path d="M 337.566406 706.269531 L 914.839844 444.742188 L 1063.707031 773.34375 L 486.433594 1034.871094 Z M 337.566406 706.269531 " clip-rule="nonzero"/></clipPath><clipPath id="8c96316924"><path d="M 337.566406 706.269531 L 914.839844 444.742188 L 1063.707031 773.34375 L 486.433594 1034.871094 Z M 337.566406 706.269531 " clip-rule="nonzero"/></clipPath></defs><g clip-path="url(#21b8271a94)"><path fill="#6721ff" d="M 783.769531 774.015625 C 778.992188 783.335938 774.421875 792.625 769.96875 801.882812 C 862.558594 811.878906 929.171875 839.214844 929.171875 871.53125 C 929.171875 912.253906 823.546875 945.25 693.273438 945.25 C 563 945.25 457.375 912.253906 457.375 871.53125 C 457.375 839.214844 523.988281 811.878906 616.546875 801.914062 C 612.125 792.652344 607.496094 783.363281 602.746094 774.105469 C 484.207031 789.351562 398.402344 833.816406 398.402344 886.277344 C 398.402344 951.414062 530.414062 1004.226562 693.273438 1004.226562 C 856.101562 1004.226562 988.148438 951.414062 988.148438 886.277344 C 988.148438 833.816406 902.339844 789.351562 783.769531 774.015625 Z M 783.769531 774.015625 " fill-opacity="1" fill-rule="nonzero"/></g><g clip-path="url(#ba4846216b)"><path fill="#6721ff" d="M 708.015625 886.277344 C 724.941406 801.851562 793.355469 704.632812 824.375 626.523438 C 834.785156 606.617188 840.710938 584.03125 840.710938 560.085938 C 840.710938 479.617188 774.660156 414.480469 693.246094 414.480469 C 611.828125 414.480469 545.835938 479.617188 545.835938 560.085938 C 545.835938 584.03125 551.707031 606.617188 562.113281 626.523438 C 593.136719 704.632812 661.632812 801.851562 678.53125 886.277344 C 682.246094 886.277344 704.359375 886.277344 708.015625 886.277344 Z M 693.246094 488.195312 C 733.964844 488.195312 766.992188 521.253906 766.992188 561.914062 C 766.992188 602.636719 733.964844 635.632812 693.246094 635.632812 C 652.523438 635.632812 619.554688 602.636719 619.554688 561.914062 C 619.554688 521.253906 652.523438 488.195312 693.246094 488.195312 Z M 693.246094 488.195312 " fill-opacity="1" fill-rule="nonzero"/></g><g clip-path="url(#0a5cbb7778)"><g clip-path="url(#1c3a06ea48)"><g clip-path="url(#1ea402551f)"><path fill="#ea0e96" d="M 915.242188 444.8125 L 780.867188 586.746094 L 852.027344 588.285156 C 840.722656 650.394531 796.636719 727.554688 727.957031 795.996094 C 619.519531 904.0625 489.539062 950.78125 431.730469 904.152344 C 433.527344 906.347656 435.433594 908.460938 437.453125 910.488281 C 502.015625 975.273438 656.085938 926.40625 781.582031 801.339844 C 845.882812 737.257812 890.191406 665.613281 909.4375 602.257812 L 969.507812 630.113281 L 915.242188 444.8125 " fill-opacity="1" fill-rule="nonzero"/></g></g></g><g clip-path="url(#8e1c1c8ba5)"><g clip-path="url(#5f8f7ea47d)"><g clip-path="url(#b8d10a23c4)"><path fill="#ffffff" d="M 441.617188 894.222656 C 449.570312 906.230469 467.171875 910.691406 491.046875 908.511719 C 480.15625 906.71875 425.53125 900.445312 460.984375 822.265625 C 439.246094 852.351562 431.160156 878.425781 441.617188 894.222656 " fill-opacity="1" fill-rule="nonzero"/></g></g></g><g clip-path="url(#e236349f53)"><g clip-path="url(#7ff7af91fb)"><g clip-path="url(#8c96316924)"><path fill="#c8bdff" d="M 912.8125 701.898438 L 847.75 735.136719 L 869.300781 745.035156 C 842.386719 786.472656 797.785156 832.238281 741.488281 872.894531 C 655.324219 935.109375 566.375 967.585938 513.640625 960.480469 C 559.089844 985.867188 664.492188 953.851562 766.023438 880.535156 C 819.683594 841.789062 862.742188 798.378906 889.964844 758.519531 L 908.671875 775.589844 L 912.8125 701.898438 " fill-opacity="1" fill-rule="nonzero"/></g></g></g></svg>